<svg width="20" height="20" viewBox="0 0 20 20" fill="none" xmlns="http://www.w3.org/2000/svg">
<path d="M1.1269 0C0.513081 0 0.00234283 0.510906 0.00234283 1.12493V3.12481C-0.000780945 3.14981 -0.000780945 3.17481 0.00234283 3.1998V15.999C0.00234283 16.2193 0.18196 16.399 0.402187 16.399H9.59859C9.74229 16.4006 9.87661 16.3256 9.95002 16.2006C10.0219 16.0756 10.0219 15.9225 9.95002 15.7975C9.87661 15.6725 9.74229 15.5975 9.59859 15.599H0.80203V3.59978H16.7958V8.79946C16.7942 8.9432 16.8692 9.07757 16.9941 9.151C17.1191 9.22287 17.2722 9.22287 17.3971 9.151C17.5221 9.07757 17.597 8.9432 17.5955 8.79946V3.1998C17.5986 3.17481 17.5986 3.14981 17.5955 3.12481V1.12493C17.5955 0.510906 17.0847 0 16.4709 0H1.1269ZM1.1269 0.799951H16.4709C16.6568 0.799951 16.7958 0.939005 16.7958 1.12493V2.79983H0.80203V1.12493C0.80203 0.939005 0.941039 0.799951 1.1269 0.799951ZM2.80125 5.99963V6.79958H4.40062V5.99963H2.80125ZM5.60016 5.99963V6.79958H14.7966V5.99963H5.60016ZM2.80125 7.99951V8.79946H4.40062V7.99951H2.80125ZM5.60016 7.99951V8.79946H14.7966V7.99951H5.60016ZM18.3577 9.96189C17.9375 9.96189 17.5158 10.1166 17.1956 10.4369L16.9207 10.7243L16.9332 10.7368L10.7606 16.9115C10.7091 16.9583 10.6701 17.0193 10.6482 17.0865L9.97345 19.4863C9.93284 19.6254 9.96876 19.7754 10.0703 19.88C10.1718 19.9832 10.3202 20.0238 10.4608 19.9863L12.8598 19.3488C12.927 19.3269 12.9879 19.2879 13.0348 19.2363L19.3573 12.9617C19.4057 12.9211 19.4447 12.8695 19.4697 12.8117C19.4697 12.807 19.4697 12.8039 19.4697 12.7992L19.5197 12.7617C20.1601 12.1211 20.1601 11.0774 19.5197 10.4369C19.1995 10.1166 18.7778 9.96189 18.3577 9.96189ZM2.80125 9.99939V10.7993H4.40062V9.99939H2.80125ZM5.60016 9.99939V10.7993H14.7966V9.99939H5.60016ZM17.4955 11.2993L18.695 12.4992L12.5599 18.5989L11.3854 17.4614L11.3979 17.4114L17.4955 11.2993ZM2.80125 11.9993V12.7992H4.40062V11.9993H2.80125ZM5.60016 11.9993V12.7992H13.1972V11.9993H5.60016Z" fill="#9B51E0"/>
</svg>
