<svg xmlns="http://www.w3.org/2000/svg" width="1718.969" height="1515" viewBox="0 0 1718.969 1515">
  <g id="Klassbook-logo-transparency" transform="translate(-1 1515)">
    <path id="Path_1" data-name="Path 1" d="M780.8-1435.9c-87.1,43.5-175.1,87.6-195.5,98.1L548-1318.7v771.2l2.5,3.7c5.2,7.7,21.4,16.6,43.5,23.8,19.4,6.4,43.4,9.7,77,10.6l19.5.5L789-534.8l98.5-25.8.3-372.8c.2-354.7.1-372.7-1.5-372.2-1,.3-45.9,10.7-99.8,23.2l-98,22.6-11-.6c-22.3-1.1-35-4.5-59.6-16-24-11.2-61.1-32.7-59.5-34.4.8-.8,7.3-3.6,141.6-62.4,127.4-55.7,199.4-87.5,225.5-99.6l15-6.9.3-17.6c.1-10.9-.1-17.7-.7-17.7C939.6-1515,867.9-1479.4,780.8-1435.9Z" fill="#f9560f"/>
    <path id="Path_2" data-name="Path 2" d="M977.5-1476c-53,24.4-94.6,43.9-160.5,75-73.7,34.8-130.2,61.2-157.7,73.6-8.4,3.7-15.3,7.3-15.3,8a4.7,4.7,0,0,0,1.8,2.6c1.5,1.4,17.6-4.6,177.2-65.7l175.5-67.1.3-17.7c.2-13.8,0-17.7-1-17.6C997.1-1484.9,988-1480.9,977.5-1476Z" fill="#07336e"/>
    <path id="Path_3" data-name="Path 3" d="M1046-1455.8c-32.6,14.1-112.5,47.7-230.5,97-63.2,26.4-117.1,49-119.7,50.1-5.3,2.2-5.4,2.4-3.4,5.2,1.3,1.8,1.8,1.8,15.2-2.4,47.6-15,224.5-75.2,319.1-108.7l39.3-13.9v-17.8c0-9.7-.3-17.7-.7-17.6C1064.8-1463.9,1056.2-1460.3,1046-1455.8Z" fill="#07336e"/>
    <path id="Path_4" data-name="Path 4" d="M1129-1431.4c-6.9,2.5-62.4,22-123.5,43.4-145.8,51.1-255.9,90.3-257.4,91.7-.3.2.5,1.3,1.7,2.5l2.2,2.2,33.7-9.7c49.4-14.1,111.4-31.4,211.8-59,49-13.5,101.7-28.1,117.3-32.4l28.2-7.8v-17.7c0-9.8-.3-17.8-.7-17.7C1141.8-1435.9,1135.9-1433.9,1129-1431.4Z" fill="#07336e"/>
    <path id="Path_5" data-name="Path 5" d="M1140.3-1376.6c-43.1,10-78.7,18.6-79.2,19.1-1.4,1.6-171.4,412.7-171.7,415.4-.2,1.5,30.1,60.6,85.8,167.5,47.3,90.8,86.4,165.4,86.7,165.8.7.7,162.9-42.8,164.3-44.1.4-.3-30.8-58.9-69.3-130.1-38.6-71.2-77.2-142.6-85.9-158.7l-15.8-29.2,83.4-211.6c45.9-116.4,83.4-211.9,83.4-212.1C1222-1395.5,1215.3-1394,1140.3-1376.6Z" fill="#f9560f"/>
    <path id="Path_6" data-name="Path 6" d="M248.9-305.2c-8.2,5.3-16.2,16.6-19.3,27.3-1.5,5-1.6,17.8-1.4,128,.3,113.4.5,122.8,2.1,128.4,2.5,8.5,5.9,14.7,9,16.5,2.5,1.4,3,1.3,7.2-.9,6.4-3.4,13.8-11.8,18.2-20.8l3.8-7.7.3-121c.3-127,.2-130.1-4.1-141.6-2.2-6-6.5-11-9.4-11C254.2-308,251.4-306.7,248.9-305.2Z" fill="#07336e"/>
    <path id="Path_7" data-name="Path 7" d="M907.5-306.9c-6.3,3.7-10.8,10.5-14.1,21.5-1.7,5.5-1.9,13.8-2.2,124.9-.2,81.6.1,121.6.8,127.3,1.7,12.9,4.6,21,9.1,25.6,3.6,3.6,4.2,3.8,8,3.2,9.4-1.5,15-6.4,18-15.5,3.7-11.2,3.1-10.9,10.3-4.9,3.5,2.9,11,9.4,16.8,14.4l10.5,9.1,12.9.7c29,1.6,45.8-3.7,61.5-19.3,14.7-14.7,23.5-34.6,27.4-62.2,2-13.8,1.9-47,0-60.9-5.3-36.9-20.7-62.9-44-74-11.5-5.4-16.9-6.5-33-6.5-20.6.1-21.5.4-41,17.5-8.8,7.6-16.3,13.6-16.7,13.2s-.2-10.2.3-21.7c1.5-29.7.7-66.3-1.5-73.5-3.7-11.7-10-18.8-17.3-19.6A11.277,11.277,0,0,0,907.5-306.9Zm90.6,124.2c16.9,8.3,26.1,29,27.5,62.4,1.9,40.6-8.7,70.1-28.3,79-11,5-28.1,4.2-39.6-2-6.7-3.5-11.8-8.9-17.5-18.5l-4-6.7L934.6-89c-2-25.4-2-30.1.3-52.2,1.7-16.9,2-17.9,5.2-23,10.7-16.7,20.6-22,40.9-21.5C991.2-185.5,993.1-185.2,998.1-182.7Z" fill="#07336e"/>
    <path id="Path_8" data-name="Path 8" d="M1574.2-306.4c-3.6,1.8-8,7.6-10.6,13.7-4.6,11.1-4.6,11.5-4.6,136.7,0,102.1.2,119.1,1.5,125.5,4.7,22.7,16.7,32.3,28.1,22.3,7.4-6.5,10.8-17.5,11.8-37.6,1.2-25.1,7.8-44.2,15.2-44.2,4.1,0,10.5,3.9,17.8,10.9,4.7,4.6,11.1,13,20.9,27.5,15.5,23.1,22.6,31.2,35,39.3,12.8,8.4,23.6,10.2,28.7,4.8,2-2.1,2.2-3.2,1.8-9.2-.5-9.4-2.7-13.4-26.5-48.3-11-16.2-21-31.4-22.2-33.7-5.1-10.2-6.7-27.4-3.5-39.6,2.6-10.2,6.7-16.5,22.6-35.2,16.9-19.9,21.3-26.1,23.4-33.2,5.9-19.7-17.8-17.1-45,4.8-10.3,8.2-40.7,44.1-61.6,72.6-4.1,5.6-7.9,10.2-8.4,10.3-.4,0-.5-1.5-.2-3.2.4-1.8.9-36.8,1.2-77.8.6-82.5.6-83-5.7-95.7C1589-305.9,1581.3-310,1574.2-306.4Z" fill="#07336e"/>
    <path id="Path_9" data-name="Path 9" d="M13.6-285.9c-2,1.7-4.9,5.8-6.6,9.2-6.1,12.5-6,9.6-6,129.5,0,117,0,117,5,128.6C8.5-12.7,14.3-6.4,18.6-5c4.7,1.6,9.4-.1,13.9-5.1C41.2-19.7,43-29.5,43-66.2c0-38.4,2-58.6,6.1-61.1,1.9-1.2,11.6,3,20.5,8.9C81.4-110.6,86.3-104.3,109-68c17.2,27.4,23.1,36,29.4,42.6C150.3-12.7,164.7-4,173.7-4c3.3,0,8-2.6,9.4-5.2,1.9-3.6,1.3-13.1-1.3-19.5-1.3-3.2-15.8-27.4-32.3-53.8-16.4-26.4-30.9-50.4-32.3-53.3-6.9-15.2-6.3-37.4,1.6-53.2,2.9-5.6,6.1-10,40.6-54,25.3-32.2,24.6-31.2,24.6-36.9,0-7-1.9-9.1-8.4-9.1-11.5,0-29.9,9.2-43.8,21.9-3,2.7-19.3,23.1-36.3,45.2-17.1,22.2-32.3,41-34,42-4.5,2.8-10.6,2.5-13.8-.6-4.2-4.2-4.7-9.1-4.7-43.7,0-35.8-.7-41.7-6-52.5-4.3-8.7-8.7-12.3-15-12.3C17.9-289,16.5-288.5,13.6-285.9Z" fill="#07336e"/>
    <path id="Path_10" data-name="Path 10" d="M388.5-222.9c-3.8.5-12.8,2.3-19.8,4-14.2,3.4-18.7,6-24.1,13.7-4.2,5.9-4.8,14.2-1.4,19.1a16.6,16.6,0,0,0,13.6,7.1c2.4,0,9.5-1.8,16-4,28-9.5,47.8-7.4,59.6,6.4l4.3,5.1,1.2,12c.6,6.6,1.4,13.2,1.6,14.8,1,6.1-4,8-25,9.7-29.7,2.4-53.3,5.9-60.4,8.8-17.9,7.6-29.9,19.8-35.8,36.9-2.5,7.2-2.7,9.1-2.7,23.3-.1,17.7,1.1,23.8,7.1,36C329.4-16.2,341.6-6.6,358-2.3c8.5,2.2,29.5,2.2,40-.1A93.117,93.117,0,0,0,414-8c7.9-3.8,9.2-4.9,18-15,5.2-6,9.8-10.6,10.2-10.2a79.774,79.774,0,0,1,3.4,9.7c3.3,10.6,8.3,16.6,15.6,18.5,7.8,2.2,12-1.4,15.8-13.7,3.3-10.7,4-21.3,4-59.3,0-40.2-1.1-65.8-4-94.4l-1.9-18.8-4.3-5.5a73.561,73.561,0,0,0-19.6-17C436.7-222.2,412-225.8,388.5-222.9Zm43.2,117a22.452,22.452,0,0,1,5.1,3.1c2.8,2.7,2.9,6.4.1,27.3l-2.1,16-7.1,7.3c-8.2,8.3-13.1,11.6-22,14.4-7.7,2.5-21.1,2.7-28.8.5-14.1-4.1-21.1-18.3-17.5-35.4,2.5-11.9,8.5-21.1,16.6-25.3,9.2-4.7,20.3-7.4,33.5-8,7.2-.4,14.4-.7,16.2-.8A17.486,17.486,0,0,1,431.7-105.9Z" fill="#07336e"/>
    <path id="Path_11" data-name="Path 11" d="M584.2-223c-29.6,4.1-50.9,20.2-56.3,42.6-1.7,7.2-1.5,24.7.4,32.1,5.5,21.2,18.2,32.3,56.4,49.5,34.6,15.5,44.2,23.6,44.3,37.2,0,15.3-9.4,23.5-29.6,25.5-12.5,1.3-29.3-.2-38.7-3.3a79.523,79.523,0,0,0-15.5-3.3c-9.6-.7-16.7,1.8-17.8,6.2-2.5,10.1,7.7,22.3,27,32L563.2,0h14.7c38.8,0,59.9-5.9,75.1-20.9,11.4-11.3,17-25.8,17-44.6,0-27.5-11.3-43.7-40.5-58.3-4.4-2.2-14.3-6.7-22-10.2-31.5-13.9-39.7-20.8-39.8-33.5-.1-9.8,5.3-16.1,16.4-19.1,8.8-2.3,29.2-1.9,38.6.8,11,3.1,26.1,3.1,31.9.1,4.7-2.5,6.9-6.7,5.9-11.1-1.6-7.3-12.5-17.1-26.2-23.4-6.8-3.1-6.9-3.2-25.3-3.4C598.8-223.7,587.7-223.5,584.2-223Z" fill="#07336e"/>
    <path id="Path_12" data-name="Path 12" d="M757.9-222.5c-17.5,2.8-29.9,8.6-40,18.5C707-193.3,703-182.9,703-165c0,31.6,12.4,45.7,58.6,66.4,20.7,9.3,28,13.4,35,19.8,6.8,6.3,8.4,9.7,8.4,17.8,0,15.4-8.9,22.9-29.8,24.9-12.2,1.2-28.2-.1-37.7-3.2-15-4.7-25.9-4.7-31.5-.1-9.1,7.7,3,24.6,25.4,35.5l8,3.9h14.5c39.2,0,60.2-5.9,75.7-21.4,12.5-12.5,17-25.7,16.1-47.6-.7-18.9-4.8-28.3-17.1-39.7-7.9-7.3-18.2-13.4-36.6-21.6-40.7-18-48-23.7-48-37.4,0-9.3,4.8-15.2,14.8-18.3,9-2.8,29.3-2.8,39.3,0,9.8,2.7,20.2,3.5,27.1,2.1,20.1-4.2,13.5-22.2-12.9-35.3l-8.5-4.2-18.7-.3C772.8-223.8,763.6-223.4,757.9-222.5Z" fill="#07336e"/>
    <path id="Path_13" data-name="Path 13" d="M1181.1-222.9c-50.2,7.7-78.6,52-75.8,117.9,2.6,60.3,32.7,98.7,81.6,104,12.1,1.3,27.7.1,38.6-3,32.9-9.3,54.5-36.2,62.3-77.4,1.3-6.9,1.7-14.5,1.6-31.6,0-19.6-.3-23.9-2.3-33-8.6-40-31.5-66.6-64.6-75.1C1213.2-223.5,1191.1-224.5,1181.1-222.9Zm35.2,39.8c8.7,3.4,16.8,11.4,21.7,21.5,6.7,13.7,9,26,9,49.6q0,73.95-49,74c-33.1,0-50-25.1-50-74.5,0-36.2,9.3-60,26.9-69,7.5-3.8,11.4-4.4,24.1-4.1C1208.1-185.4,1211.7-184.9,1216.3-183.1Z" fill="#07336e"/>
    <path id="Path_14" data-name="Path 14" d="M1402.6-222.9c-9.5,1.3-23.8,6.2-32.1,11.1-9.6,5.6-21.7,18.1-28.1,29-23,39.1-21.2,109,3.7,145.5,18,26.3,48.8,39.8,82.8,36.4,13.7-1.5,20.8-3.4,31.6-8.6,25.1-12.1,41.3-35.8,48-70.5,2.3-11.5,3.1-41,1.5-53.7-5.9-47.5-30.1-78.8-68-87.8C1434-223.4,1411.9-224.2,1402.6-222.9Zm34.7,39.8c12.9,5.1,23.1,18.7,27.8,37.1,3,12.3,3.9,44.6,1.5,59-4.6,27.4-15.7,42.5-35,47.6-6.8,1.8-18.8,1.8-26.1-.2-24-6.2-36.6-31.5-36.5-73.4.1-40.7,12-65,35-71.6C1411.3-186.7,1430.2-185.9,1437.3-183.1Z" fill="#07336e"/>
  </g>
</svg>
