<svg width="20" height="20" viewBox="0 0 20 20" fill="none" xmlns="http://www.w3.org/2000/svg">
<circle cx="10" cy="10" r="10" fill="#9B51E0"/>
<path d="M12.7337 5C12.0862 5 11.5407 5.43903 11.4673 5.99864C11.4549 5.99694 11.4416 5.99355 11.4292 5.99185C8.97465 5.61906 7.71021 8.31097 7.16476 8.67527C6.91397 8.83916 6.256 8.86889 5.60852 8.9538C5.28431 8.99626 4.96105 9.05995 4.67783 9.20516C4.39462 9.35037 4.15527 9.59409 4.06754 9.93207H4.07517C3.96456 10.1622 3.98363 10.428 4.0828 10.6929C4.19437 10.9901 4.40702 11.3026 4.70072 11.6236C5.27 12.2461 6.1492 12.9042 7.23342 13.4986C7.45751 14.2391 8.2137 14.7826 9.11769 14.7826C9.3885 14.7826 9.64692 14.7342 9.88055 14.6467C10.6415 14.8743 11.3204 15 11.9021 15C12.4676 15 12.9415 14.8675 13.1837 14.5312H13.1914C13.2009 14.5211 13.2057 14.5075 13.2143 14.4973C13.425 14.257 13.59 13.9759 13.5728 13.6209C13.5547 13.2507 13.363 12.8261 12.9625 12.2351C12.8118 12.0117 12.8528 11.6593 13.0235 11.1957C13.1942 10.732 13.4774 10.1851 13.6949 9.61957C13.9123 9.05401 14.0715 8.45958 13.9466 7.88043C13.8827 7.58407 13.7406 7.29535 13.5041 7.03125C13.8055 6.81641 14 6.49287 14 6.12772C14 5.50781 13.4298 5 12.7337 5ZM12.7337 5.43478C13.1609 5.43478 13.5118 5.74728 13.5118 6.12772C13.5118 6.37568 13.3802 6.58373 13.1609 6.71875C12.9902 6.58798 12.789 6.46399 12.5582 6.3519C12.5553 6.3519 12.5534 6.3519 12.5506 6.3519C12.3417 6.25085 12.1415 6.17442 11.9479 6.11413C11.9565 5.74049 12.3122 5.43478 12.7337 5.43478ZM10.8952 6.3587C11.309 6.35954 11.7782 6.46909 12.3217 6.73234C13.0684 7.09579 13.3678 7.5051 13.466 7.96196C13.5642 8.41882 13.4431 8.94871 13.2371 9.4837C13.0312 10.0187 12.7432 10.5579 12.5582 11.0598C12.3732 11.5617 12.2664 12.0516 12.5429 12.4592C12.705 12.6979 12.8166 12.8957 12.9015 13.0707C12.7928 12.9288 12.6698 12.7828 12.5277 12.6359C11.8735 11.9633 10.8675 11.2475 9.65169 10.6182C8.24707 9.8947 6.87583 9.45992 5.82975 9.36821C6.39141 9.31046 7.01219 9.31046 7.45465 9.02174C8.3758 8.40608 9.10148 6.35445 10.8952 6.3587ZM5.43307 9.78261C6.35422 9.78261 7.87232 10.2013 9.40757 10.9918C10.5843 11.6016 11.5579 12.3004 12.1615 12.9212C12.4628 13.2311 12.6717 13.5182 12.7718 13.7568C12.87 13.992 12.8605 14.1619 12.7871 14.2799C12.6802 14.4438 12.3951 14.5652 11.9021 14.5652C11.4911 14.5652 10.9924 14.4828 10.4222 14.3342C10.8189 14.0166 11.0706 13.5581 11.0706 13.0435C11.0706 12.0805 10.199 11.3043 9.11769 11.3043C8.07257 11.3043 7.22865 12.0304 7.17239 12.9484C6.27317 12.4219 5.54082 11.8546 5.07452 11.3451C4.80657 11.0521 4.63206 10.7804 4.54815 10.5571C4.46423 10.3337 4.47663 10.1792 4.54815 10.0679C4.65685 9.90659 4.94388 9.78261 5.43307 9.78261ZM9.11769 11.7391C9.94062 11.7391 10.5824 12.3106 10.5824 13.0435C10.5824 13.7763 9.94062 14.3478 9.11769 14.3478C8.29475 14.3478 7.65299 13.7763 7.65299 13.0435C7.65299 12.3106 8.29475 11.7391 9.11769 11.7391Z" fill="white"/>
</svg>
