<svg width="20" height="20" viewBox="0 0 20 20" fill="none" xmlns="http://www.w3.org/2000/svg">
<circle cx="10" cy="10" r="10" fill="#828282"/>
<path d="M9.90005 5.4C9.29458 5.4 8.80005 5.89453 8.80005 6.5C8.80005 7.10547 9.29458 7.6 9.90005 7.6C10.5055 7.6 11 7.10547 11 6.5C11 5.89453 10.5055 5.4 9.90005 5.4ZM9.90005 5.8C10.2891 5.8 10.6 6.11094 10.6 6.5C10.6 6.88906 10.2891 7.2 9.90005 7.2C9.51099 7.2 9.20005 6.88906 9.20005 6.5C9.20005 6.11094 9.51099 5.8 9.90005 5.8ZM8.00005 8.2C7.88989 8.2 7.80005 8.28985 7.80005 8.4V9.6C7.80005 9.71016 7.88989 9.8 8.00005 9.8H9.00005V13H8.00005C7.88989 13 7.80005 13.0898 7.80005 13.2V14.4C7.80005 14.5102 7.88989 14.6 8.00005 14.6H12C12.1102 14.6 12.2 14.5102 12.2 14.4V13.2C12.2 13.0898 12.1102 13 12 13H11V8.4C11 8.28985 10.9102 8.2 10.8 8.2H8.00005ZM8.20005 8.6H10.6V13.2C10.6 13.3102 10.6899 13.4 10.8 13.4H11.8V14.2H8.20005V13.4H9.20005C9.31021 13.4 9.40005 13.3102 9.40005 13.2V9.6C9.40005 9.48985 9.31021 9.4 9.20005 9.4H8.20005V8.6Z" fill="white"/>
</svg>
