<svg width="20" height="20" viewBox="0 0 20 20" fill="none" xmlns="http://www.w3.org/2000/svg">
<circle cx="10" cy="10" r="10" fill="#BB6BD9"/>
<path d="M9.91315 5C9.75886 5.0125 9.62941 5.06014 9.57266 5.12497L5.03283 9.9237C4.97608 9.98541 4.99382 10.0557 5.07894 10.1112C5.16406 10.1666 5.30593 10.1994 5.45844 10.1986H8.92006L5.52937 14.685L5.48681 14.7349C5.41233 14.8302 5.50987 14.9349 5.71558 14.9794C5.92129 15.0239 6.16956 14.9942 6.29547 14.9099L14.9211 9.11142C15.0169 9.04972 15.0258 8.96927 14.946 8.90366C14.8644 8.83805 14.7083 8.79744 14.5381 8.799H11.1474L14.7225 5.28118C14.7846 5.21947 14.7722 5.1484 14.6888 5.09138C14.6055 5.03515 14.4636 5.00078 14.3111 5H9.99827C9.98408 5 9.96989 5 9.95571 5C9.94152 5 9.92733 5 9.91315 5ZM10.3104 5.39989H13.6159L10.0408 8.91772C9.97876 8.97942 9.99117 9.0505 10.0745 9.10751C10.1579 9.16375 10.2997 9.19811 10.4523 9.19889H13.6869L7.44461 13.3978L9.96989 10.0612C10.0142 10.001 9.99295 9.93464 9.90783 9.88231C9.82448 9.83076 9.6897 9.79952 9.54428 9.79874H6.13941L10.3104 5.39989Z" fill="white"/>
</svg>
