<svg width="27" height="27" viewBox="0 0 27 27" fill="none" xmlns="http://www.w3.org/2000/svg">
<path d="M5.16667 0.8C2.76129 0.8 0.8 2.76129 0.8 5.16667V21.8333C0.8 24.2387 2.76129 26.2 5.16667 26.2H21.8333C24.2387 26.2 26.2 24.2387 26.2 21.8333V5.16667C26.2 2.76129 24.2387 0.8 21.8333 0.8H5.16667ZM5.16667 2.39048H21.8333C23.3737 2.39048 24.6095 3.62627 24.6095 5.16667V21.8333C24.6095 23.3737 23.3737 24.6095 21.8333 24.6095H5.16667C3.62627 24.6095 2.39048 23.3737 2.39048 21.8333V5.16667C2.39048 3.62627 3.62627 2.39048 5.16667 2.39048Z" fill="#A2925B" stroke="#A2925B" stroke-width="0.4"/>
<path d="M9.63521 5.16669C8.16442 5.16669 6.95936 6.51773 6.95936 8.16669V12.5H5.77009C5.6913 12.4988 5.61307 12.5151 5.53995 12.548C5.46682 12.581 5.40027 12.6299 5.34416 12.6919C5.28804 12.7539 5.24348 12.8279 5.21307 12.9094C5.18265 12.9909 5.16699 13.0783 5.16699 13.1667C5.16699 13.255 5.18265 13.3425 5.21307 13.424C5.24348 13.5055 5.28804 13.5794 5.34416 13.6415C5.40027 13.7035 5.46682 13.7524 5.53995 13.7853C5.61307 13.8183 5.6913 13.8346 5.77009 13.8334H7.45411C7.51833 13.8453 7.58385 13.8453 7.64807 13.8334H21.2306C21.3094 13.8346 21.3876 13.8183 21.4607 13.7853C21.5338 13.7524 21.6004 13.7035 21.6565 13.6415C21.7126 13.5794 21.7572 13.5055 21.7876 13.424C21.818 13.3425 21.8337 13.255 21.8337 13.1667C21.8337 13.0783 21.818 12.9909 21.7876 12.9094C21.7572 12.8279 21.7126 12.7539 21.6565 12.6919C21.6004 12.6299 21.5338 12.581 21.4607 12.548C21.3876 12.5151 21.3094 12.4988 21.2306 12.5H8.14863V8.16669C8.14863 7.23831 8.80715 6.50002 9.63521 6.50002C10.4008 6.50002 11.0139 7.1334 11.1032 7.96226C10.4213 8.24332 9.93253 8.97127 9.93253 9.83335H13.5003C13.5003 8.95593 12.9935 8.21877 12.2925 7.94924C12.1948 6.48874 11.15 5.33729 9.84774 5.21486C9.78013 5.18434 9.70809 5.16801 9.63521 5.16669V5.16669ZM5.77009 15.1667L6.55055 19.2057C6.84727 20.7391 8.05718 21.8334 9.45636 21.8334H17.5443C18.9435 21.8334 20.154 20.7391 20.4501 19.2057L21.2306 15.1667H5.77009Z" fill="#A2925B"/>
</svg>
