<svg width="27" height="27" viewBox="0 0 27 27" fill="none" xmlns="http://www.w3.org/2000/svg">
<path d="M7.3395 5.16669C7.14744 5.16669 6.96324 5.24303 6.82743 5.37893C6.69162 5.51482 6.61533 5.69914 6.61533 5.89132C6.61554 5.9471 6.62218 6.00267 6.63513 6.05692L8.07498 13.9869C8.07664 13.9973 8.07853 14.0077 8.08064 14.018L8.08205 14.0251C8.08252 14.0251 8.083 14.0251 8.08347 14.0251C8.12021 14.1846 8.20982 14.3269 8.33772 14.429C8.46562 14.531 8.62427 14.5867 8.78783 14.587H16.7537C16.9457 14.587 17.1299 14.5106 17.2657 14.3747C17.4016 14.2388 17.4779 14.0545 17.4779 13.8623C17.4777 13.7455 17.4494 13.6304 17.3952 13.5269C17.341 13.4234 17.2626 13.3345 17.1667 13.2679L17.1653 13.2665C17.1588 13.2617 17.1522 13.2569 17.1455 13.2523C17.0869 13.2032 15.2704 11.6884 13.1328 11.6884C12.4963 11.6884 11.8608 11.8152 11.2786 11.9913C11.2786 11.9913 11.1883 11.1616 11.0042 10.2392H13.0112C13.0894 10.2521 13.1692 10.2521 13.2474 10.2392H14.5812C14.6771 10.2405 14.7724 10.2228 14.8615 10.187C14.9505 10.1512 15.0316 10.098 15.0999 10.0306C15.1682 9.96315 15.2225 9.88281 15.2595 9.79421C15.2966 9.70562 15.3157 9.61055 15.3157 9.51451C15.3157 9.41848 15.2966 9.3234 15.2595 9.23481C15.2225 9.14622 15.1682 9.06588 15.0999 8.99845C15.0316 8.93103 14.9505 8.87787 14.8615 8.84206C14.7724 8.80626 14.6771 8.78852 14.5812 8.78988H13.857C13.8583 8.69293 13.8402 8.5967 13.8037 8.50688C13.7672 8.41707 13.713 8.33551 13.6445 8.26701C13.5759 8.19852 13.4943 8.14449 13.4044 8.10813C13.3146 8.07177 13.2184 8.05382 13.1215 8.05533C12.9297 8.05833 12.7469 8.13736 12.6133 8.27507C12.4796 8.41279 12.406 8.59793 12.4087 8.78988H10.6237C10.6151 8.76632 10.6085 8.73938 10.5997 8.71628C10.0628 7.30588 9.15085 6.06513 8.66195 5.4823C8.65962 5.47945 8.65726 5.47662 8.65488 5.47381C8.65117 5.46939 8.64582 5.46117 8.64215 5.45683C8.57481 5.36689 8.48749 5.29386 8.38709 5.24351C8.2867 5.19315 8.17597 5.16685 8.06367 5.16669H7.3395ZM8.06367 16.0363C6.46398 16.0363 5.16699 17.3341 5.16699 18.9348V19.2971C5.16699 20.6893 6.31034 21.8334 7.70158 21.8334C8.70322 21.8334 9.56827 21.2357 9.97875 20.3841H14.8386C15.2491 21.2357 16.1141 21.8334 17.1158 21.8334C18.507 21.8334 19.6504 20.6893 19.6504 19.2971V18.9348C19.6504 18.8679 19.635 18.8052 19.6306 18.7395L21.3278 18.1734C21.4908 18.1218 21.6303 18.0142 21.7216 17.8696C21.8129 17.725 21.8502 17.5528 21.8269 17.3833C21.8035 17.2139 21.721 17.0582 21.5939 16.9437C21.4669 16.8293 21.3035 16.7635 21.1326 16.7581C21.0433 16.7549 20.9541 16.7683 20.8696 16.7977L19.1808 17.361C18.6644 16.5652 17.7725 16.0363 16.7537 16.0363H8.06367ZM7.70158 18.2102C8.31008 18.2102 8.78783 18.6882 8.78783 19.2971C8.78783 19.906 8.31008 20.3841 7.70158 20.3841C7.09308 20.3841 6.61533 19.906 6.61533 19.2971C6.61533 18.6882 7.09308 18.2102 7.70158 18.2102ZM17.1158 18.2102C17.7243 18.2102 18.202 18.6882 18.202 19.2971C18.202 19.906 17.7243 20.3841 17.1158 20.3841C16.5073 20.3841 16.0295 19.906 16.0295 19.2971C16.0295 18.6882 16.5073 18.2102 17.1158 18.2102Z" fill="#E2B017"/>
<path d="M5.16667 0.8C2.76129 0.8 0.8 2.76129 0.8 5.16667V21.8333C0.8 24.2387 2.76129 26.2 5.16667 26.2H21.8333C24.2387 26.2 26.2 24.2387 26.2 21.8333V5.16667C26.2 2.76129 24.2387 0.8 21.8333 0.8H5.16667ZM5.16667 2.39048H21.8333C23.3737 2.39048 24.6095 3.62627 24.6095 5.16667V21.8333C24.6095 23.3737 23.3737 24.6095 21.8333 24.6095H5.16667C3.62627 24.6095 2.39048 23.3737 2.39048 21.8333V5.16667C2.39048 3.62627 3.62627 2.39048 5.16667 2.39048Z" fill="#E2B017" stroke="#E2B017" stroke-width="0.4"/>
</svg>
