<svg width="27" height="27" viewBox="0 0 27 27" fill="none" xmlns="http://www.w3.org/2000/svg">
<path d="M5.16667 0.8C2.76129 0.8 0.8 2.76129 0.8 5.16667V21.8333C0.8 24.2387 2.76129 26.2 5.16667 26.2H21.8333C24.2387 26.2 26.2 24.2387 26.2 21.8333V5.16667C26.2 2.76129 24.2387 0.8 21.8333 0.8H5.16667ZM5.16667 2.39048H21.8333C23.3737 2.39048 24.6095 3.62627 24.6095 5.16667V21.8333C24.6095 23.3737 23.3737 24.6095 21.8333 24.6095H5.16667C3.62627 24.6095 2.39048 23.3737 2.39048 21.8333V5.16667C2.39048 3.62627 3.62627 2.39048 5.16667 2.39048Z" fill="#219653" stroke="#219653" stroke-width="0.4"/>
<path d="M13.5085 5.16669C13.3337 5.16653 13.1576 5.22454 13.0215 5.34153C12.7493 5.57551 12.7429 5.96458 13.0012 6.21092C13.0213 6.23005 13.5003 6.69598 13.5003 7.63377H14.8892C14.8892 6.18479 14.0837 5.42664 13.9913 5.34515C13.8569 5.22569 13.6832 5.16684 13.5085 5.16669ZM13.5003 7.63377H11.417C8.08783 7.63377 5.16699 10.1897 5.16699 13.8075C5.16699 18.8545 9.00758 20.2074 11.5486 21.1026C12.1923 21.3298 12.7481 21.5263 13.1314 21.7393C13.2453 21.8029 13.3725 21.8334 13.5003 21.8334C13.6635 21.8334 13.8269 21.7821 13.9561 21.6814C14.3401 21.3851 15.0259 21.1436 15.821 20.8639C18.2155 20.0218 21.8337 18.7483 21.8337 13.8075C21.8337 10.2625 19.1782 7.8266 15.9567 7.65065C14.1948 7.65065 10.7225 9.5217 10.7225 13.1901C10.7225 14.9262 11.328 15.9735 11.3343 15.984C11.5162 16.284 11.3889 16.6597 11.0521 16.8208C10.9466 16.8708 10.835 16.8944 10.7239 16.8944C10.4767 16.8944 10.2365 16.7774 10.1108 16.57C10.0796 16.5175 9.33366 15.262 9.33366 13.1901C9.33366 8.25114 13.5003 7.63377 13.5003 7.63377Z" fill="#219653"/>
</svg>
