<svg width="27" height="27" viewBox="0 0 27 27" fill="none" xmlns="http://www.w3.org/2000/svg">
<path d="M9.08862 5.16669C8.30858 5.16669 7.56048 5.3774 7.00891 5.75247C6.45733 6.12755 6.14746 6.63625 6.14746 7.16669C6.14746 7.69712 6.45733 8.20583 7.00891 8.5809C7.56048 8.95597 8.30858 9.16669 9.08862 9.16669C9.86867 9.16669 10.6168 8.95597 11.1683 8.5809C11.7199 8.20583 12.0298 7.69712 12.0298 7.16669C12.0298 6.63625 11.7199 6.12755 11.1683 5.75247C10.6168 5.3774 9.86867 5.16669 9.08862 5.16669ZM17.9121 5.16669C17.1321 5.16669 16.384 5.3774 15.8324 5.75247C15.2808 6.12755 14.9709 6.63625 14.9709 7.16669C14.9709 7.69712 15.2808 8.20583 15.8324 8.5809C16.384 8.95597 17.1321 9.16669 17.9121 9.16669C18.6922 9.16669 19.4403 8.95597 19.9918 8.5809C20.5434 8.20583 20.8533 7.69712 20.8533 7.16669C20.8533 6.63625 20.5434 6.12755 19.9918 5.75247C19.4403 5.3774 18.6922 5.16669 17.9121 5.16669ZM8.10824 10.5C6.49553 10.5 5.16708 11.4034 5.16708 12.5V16.5C5.16378 16.6722 5.25863 16.8387 5.43175 16.9644C5.60487 17.0901 5.84282 17.1654 6.09576 17.1745V21.2344C6.09576 21.5251 6.54988 21.8334 7.1087 21.8334C7.64203 21.8334 8.08443 21.5521 8.11973 21.1901L8.54865 16.8099C8.56629 16.6359 8.77908 16.5 9.03692 16.5C9.29477 16.5 9.50756 16.6366 9.5252 16.8112L9.95412 21.1901C9.98942 21.5515 10.4318 21.8334 10.9651 21.8334C11.524 21.8334 11.9781 21.5246 11.9781 21.1446V11.8334H17.9121C18.042 11.8346 18.171 11.8183 18.2916 11.7853C18.4121 11.7524 18.5218 11.7035 18.6144 11.6415C18.7069 11.5794 18.7803 11.5055 18.8305 11.424C18.8806 11.3425 18.9065 11.255 18.9065 11.1667C18.9065 11.0783 18.8806 10.9909 18.8305 10.9094C18.7803 10.8279 18.7069 10.7539 18.6144 10.6919C18.5218 10.6299 18.4121 10.581 18.2916 10.548C18.171 10.5151 18.042 10.4988 17.9121 10.5H8.10824ZM20.8303 11.0065C20.8362 11.0605 20.8533 11.112 20.8533 11.1667C20.8533 12.2714 19.5366 13.1667 17.9121 13.1667H13.9906V16.5C13.9906 16.8687 14.4298 17.1667 14.9709 17.1667V21.1446C14.9709 21.5246 15.4251 21.8334 15.9839 21.8334C16.5172 21.8334 16.9596 21.5521 16.9949 21.1901L17.4238 16.8099C17.4415 16.6359 17.6543 16.5 17.9121 16.5C18.17 16.5 18.3827 16.6366 18.4004 16.8112L18.8293 21.1901C18.8646 21.5515 19.307 21.8334 19.8403 21.8334C20.3992 21.8334 20.8533 21.5246 20.8533 21.1446V17.1667C21.3944 17.1667 21.8337 16.8687 21.8337 16.5V12.5C21.8337 11.904 21.4411 11.3732 20.8303 11.0065Z" fill="#B44CF3"/>
<path d="M5.16667 0.8C2.76129 0.8 0.8 2.76129 0.8 5.16667V21.8333C0.8 24.2387 2.76129 26.2 5.16667 26.2H21.8333C24.2387 26.2 26.2 24.2387 26.2 21.8333V5.16667C26.2 2.76129 24.2387 0.8 21.8333 0.8H5.16667ZM5.16667 2.39048H21.8333C23.3737 2.39048 24.6095 3.62627 24.6095 5.16667V21.8333C24.6095 23.3737 23.3737 24.6095 21.8333 24.6095H5.16667C3.62627 24.6095 2.39048 23.3737 2.39048 21.8333V5.16667C2.39048 3.62627 3.62627 2.39048 5.16667 2.39048Z" fill="#B44CF3" stroke="#B44CF3" stroke-width="0.4"/>
</svg>
